<svg xmlns="http://www.w3.org/2000/svg" xmlns:xlink="http://www.w3.org/1999/xlink" viewBox="0 0 280 250" preserveAspectRatio="xMidYMid" style="display: block; shape-rendering: auto; background: rgb(255, 255, 255);" width="280" height="250"><style type="text/css">
  .ld-text text {
    text-anchor: middle;
    dominant-baseline: middle;
    font-size: 80px;
    opacity: 0;
    user-select: none;
    pointer-events: none;
  }
</style>
<g style="transform-origin:140px 125px;transform:scale(1)" class="ld-text">
<g transform="translate(140,125)">
  <g transform="scale(1.0000) translate(0,0)"><g class="path" style="opacity: 1; transform-origin: -356.36px -2.74px; transform: matrix3d(0.91, 0, 0, 0, 0, 0.91, 0, 0, 0, 0, 0.91, 0, 0, 0, 0, 1); animation: 1s linear -0.621176s infinite normal forwards running animate-3r0ktdrol6h; transform-box: view-box;"><path d="M6.56 6.20L6.56 6.20Q6.56-5.24 18.52-11.48Q30.48-17.72 52.32-17.72L52.32-17.72Q64.72-17.72 70.48-13.96Q76.24-10.20 76.24-3.72L76.24-3.72Q76.24 1.72 72.52 6.04Q68.80 10.36 62.08 12.44L62.08 12.44Q76.80 14.12 76.80 22.76L76.80 22.76Q76.80 27.24 73.64 30.24Q70.48 33.24 65.28 34.52L65.28 34.52Q56.48 36.68 47.20 36.68L47.20 36.68L47.20 35.08Q49.04 35.24 50.72 35.24L50.72 35.24Q58.72 35.24 62.80 32.44L62.80 32.44Q67.76 29 67.76 23.40L67.76 23.40Q67.76 20.20 65.80 17.68Q63.84 15.16 61.92 14.20L61.92 14.20L59.92 13.24Q57.36 13.80 54.16 13.80L54.16 13.80L54.16 12.20Q61.84 12.20 68.16 7.80Q74.48 3.40 74.48-3.72L74.48-3.72Q74.48-9.64 68.92-12.88Q63.36-16.12 53.04-16.20L53.04-16.20Q48.64 13.56 46.32 24.76L46.32 24.76Q44.72 33.40 38.32 38.32Q31.92 43.24 24.64 43.24L24.64 43.24L24.64 41.72Q27.76 41.48 29.24 41.04Q30.72 40.60 31.76 39.20Q32.80 37.80 33.28 35.88L33.28 35.88Q34.16 31.96 34.64 28.44L34.64 28.44L42.32-15.80Q25.92-14.44 17-8.72Q8.08-3 8.08 6.20L8.08 6.20Q8.08 10.36 10.96 13.24L10.96 13.24Q12.96 15.16 16.24 16.16Q19.52 17.16 21.64 17.28Q23.76 17.40 23.92 17.24L23.92 17.24L23.92 18.92Q14.48 18.92 9.92 14.44L9.92 14.44Q6.56 11.32 6.56 6.20" style="fill: rgb(222, 132, 15);" transform="translate(-398.040,-15.499)"></path></g><g class="path" style="opacity: 1; transform-origin: -297.28px 0.3px; transform: matrix3d(0.91, 0, 0, 0, 0, 0.91, 0, 0, 0, 0, 0.91, 0, 0, 0, 0, 1); animation: 1s linear -0.582353s infinite normal forwards running animate-3r0ktdrol6h; transform-box: view-box;"><path d="M88.08 1.48L88.08 1.48Q86.16 1.48 84.08 3.72L84.08 3.72L82.88 2.76Q83.44 1.64 85.36 0.76Q87.28-0.12 89.60-0.12L89.60-0.12Q96.88-0.12 96.88 6.44L96.88 6.44Q96.88 9.24 95.44 16.44Q94 23.64 94 25.88L94 25.88Q94 29.32 97.28 29.32L97.28 29.32Q99.60 29.32 101.80 26.60Q104 23.88 105.60 19.08L105.60 19.08L108.96 0.60Q114.88 0.60 117.60 0.12L117.60 0.12L118.64-0.12L113.28 30.12Q115.68 29.88 117.28 27.88L117.28 27.88L118.48 28.84Q116.08 31.72 112.48 31.72Q108.88 31.72 106.88 29.96Q104.88 28.20 104.80 25L104.80 25Q101.44 31.72 94.88 31.72L94.88 31.72Q90.16 31.72 87.52 29.04Q84.88 26.36 84.88 21.64L84.88 21.64Q84.88 19.16 86.40 12.08Q87.92 5 88.08 1.48" style="fill: rgb(248, 113, 113);" transform="translate(-398.040,-15.499)"></path></g><g class="path" style="opacity: 1; transform-origin: -257.4px 7.3px; transform: matrix3d(0.91, 0, 0, 0, 0, 0.91, 0, 0, 0, 0, 0.91, 0, 0, 0, 0, 1); animation: 1s linear -0.543529s infinite normal forwards running animate-3r0ktdrol6h; transform-box: view-box;"><path d="M128 1.48L128 1.48Q126.08 1.48 124 3.72L124 3.72L122.80 2.76Q123.36 1.64 125.28 0.76Q127.20-0.12 129.52-0.12L129.52-0.12Q136.80-0.12 136.80 6.44L136.80 6.44Q136.80 9.24 135.28 15.60Q133.76 21.96 133.76 24.20L133.76 24.20Q133.76 28.04 136.96 28.04L136.96 28.04Q139.60 28.04 142.12 24.44Q144.64 20.84 146.24 14.76L146.24 14.76L148.88 0.60Q154.80 0.60 157.52 0.12L157.52 0.12L158.56-0.12L153.52 28.20Q152.08 36.44 146.84 41.08Q141.60 45.72 133.28 45.72L133.28 45.72Q128.24 45.72 125.48 44Q122.72 42.28 122.72 39.52Q122.72 36.76 124.40 35.12Q126.08 33.48 129.16 33.48Q132.24 33.48 134.88 34.48Q137.52 35.48 138.72 35.64L138.72 35.64L138.56 37.08Q137.20 36.92 134.64 35.96Q132.08 35 129.56 35Q127.04 35 125.72 36.12Q124.40 37.24 124.40 39.36Q124.40 41.48 126.72 42.80Q129.04 44.12 132.48 44.12L132.48 44.12Q140.80 44.12 142.72 34.12L142.72 34.12L144.72 23.08Q141.36 30.44 134.56 30.44L134.56 30.44Q129.92 30.44 127.40 27.80Q124.88 25.16 124.88 20.36L124.88 20.36Q124.88 17.88 126.36 11.44Q127.84 5 128 1.48" style="fill: rgb(255, 167, 119);" transform="translate(-398.040,-15.499)"></path></g><g class="path" style="opacity: 1; transform-origin: -166.8px -2.22px; transform: matrix3d(0.91, 0, 0, 0, 0, 0.91, 0, 0, 0, 0, 0.91, 0, 0, 0, 0, 1); animation: 1s linear -0.504706s infinite normal forwards running animate-3r0ktdrol6h; transform-box: view-box;"><path d="M276.24 37.56L277.28 38.92Q274.24 41.96 269.40 41.96Q264.56 41.96 261.68 38.80Q258.80 35.64 258.80 30.48Q258.80 25.32 260.64 18.60L260.64 18.60L264.24 6.76Q257.52 15.24 251.92 23L251.92 23Q240.88 38.28 236.96 43.48L236.96 43.48L235.52 43.08L232.40 4.36L226 16.04Q216.88 33.24 210.76 38.72Q204.64 44.20 194.48 44.20L194.48 44.20Q185.84 44.20 180.16 38.04L180.16 38.04Q175.68 33 175.68 25.96L175.68 25.96Q175.68 24.68 175.84 23.32L175.84 23.32L177.44 23.48Q177.28 24.76 177.28 25.96L177.28 25.96Q177.28 32.44 181.36 36.92L181.36 36.92Q186.56 42.60 194.48 42.60L194.48 42.60Q204 42.60 209.84 37.28Q215.68 31.96 224.56 15.32L224.56 15.32L238.96-10.84Q230.48-11 222.52-13.52Q214.56-16.04 208.28-16.04Q202-16.04 197.76-11.64Q193.52-7.24 193.52-0.28L193.52-0.28L191.92-0.28Q191.92-7.96 196.60-12.80Q201.28-17.64 208.72-17.64L208.72-17.64Q214.72-17.64 223-15.04Q231.28-12.44 240.88-12.44L240.88-12.44L244.24 30.76L245.84 28.52Q262.72 5.32 271.92-4.64Q281.12-14.60 286.80-14.60L286.80-14.60L286.80-13Q284.32-13 280.48-10.28L280.48-10.28Q279.92-8.52 276.72 1.92Q273.52 12.36 271 20.16Q268.48 27.96 268.48 32.92Q268.48 37.88 270.24 40.28L270.24 40.28Q271.92 40.28 273.40 39.60Q274.88 38.92 275.60 38.20L275.60 38.20L276.24 37.56" style="fill: rgb(255, 184, 5);" transform="translate(-398.040,-15.499)"></path></g><g class="path" style="opacity: 1; transform-origin: -94.84px 7.3px; transform: matrix3d(0.91, 0, 0, 0, 0, 0.91, 0, 0, 0, 0, 0.91, 0, 0, 0, 0, 1); animation: 1s linear -0.465882s infinite normal forwards running animate-3r0ktdrol6h; transform-box: view-box;"><path d="M290.56 1.48L290.56 1.48Q288.64 1.48 286.56 3.72L286.56 3.72L285.36 2.76Q285.92 1.64 287.84 0.76Q289.76-0.12 292.08-0.12L292.08-0.12Q299.36-0.12 299.36 6.44L299.36 6.44Q299.36 9.24 297.84 15.60Q296.32 21.96 296.32 24.20L296.32 24.20Q296.32 28.04 299.52 28.04L299.52 28.04Q302.16 28.04 304.68 24.44Q307.20 20.84 308.80 14.76L308.80 14.76L311.44 0.60Q317.36 0.60 320.08 0.12L320.08 0.12L321.12-0.12L316.08 28.20Q314.64 36.44 309.40 41.08Q304.16 45.72 295.84 45.72L295.84 45.72Q290.80 45.72 288.04 44Q285.28 42.28 285.28 39.52Q285.28 36.76 286.96 35.12Q288.64 33.48 291.72 33.48Q294.80 33.48 297.44 34.48Q300.08 35.48 301.28 35.64L301.28 35.64L301.12 37.08Q299.76 36.92 297.20 35.96Q294.64 35 292.12 35Q289.60 35 288.28 36.12Q286.96 37.24 286.96 39.36Q286.96 41.48 289.28 42.80Q291.60 44.12 295.04 44.12L295.04 44.12Q303.36 44.12 305.28 34.12L305.28 34.12L307.28 23.08Q303.92 30.44 297.12 30.44L297.12 30.44Q292.48 30.44 289.96 27.80Q287.44 25.16 287.44 20.36L287.44 20.36Q287.44 17.88 288.92 11.44Q290.40 5 290.56 1.48" style="fill: rgb(255, 120, 112);" transform="translate(-398.040,-15.499)"></path></g><g class="path" style="opacity: 1; transform-origin: -27.92px -3.46px; transform: matrix3d(0.91, 0, 0, 0, 0, 0.91, 0, 0, 0, 0, 0.91, 0, 0, 0, 0, 1); animation: 1s linear -0.427059s infinite normal forwards running animate-3r0ktdrol6h; transform-box: view-box;"><path d="M361.28 46.52L361.28 46.52Q369.68 46.52 374.36 43.08Q379.04 39.64 379.04 33.96L379.04 33.96Q379.04 29.88 377 26.76Q374.96 23.64 371.92 21.60Q368.88 19.56 365.72 17.56Q362.56 15.56 359.84 12.52Q357.12 9.48 356.24 5.64L356.24 5.64Q348.96 3.48 346.64-3.40L346.64-3.40Q345.76-6.04 345.76-8.92Q345.76-11.80 346.64-14.92L346.64-14.92Q348.48-21.08 352.64-24.20L352.64-24.20L353.52-22.92Q349.76-20.20 348.08-14.44L348.08-14.44Q347.28-11.56 347.28-8.92Q347.28-6.28 348.08-3.88L348.08-3.88Q350 1.96 356 3.96L356 3.96Q355.84 3.08 355.84 1.24L355.84 1.24Q355.84-9.24 363.44-15.72Q371.04-22.20 382-22.20L382-22.20Q389.20-22.20 393.52-18.28L393.52-18.28Q397.20-14.84 397.20-9.84Q397.20-4.84 393.84-1.20Q390.48 2.44 384.80 2.44L384.80 2.44Q381.68 2.44 379.68 1.24L379.68 1.24Q375.60 4.36 370 5.72L370 5.72Q371.60 7.24 377.48 11.32Q383.36 15.40 386.28 19.12Q389.20 22.84 389.20 27.80L389.20 27.80Q389.20 36.92 382.12 42.60Q375.04 48.28 364.20 48.28Q353.36 48.28 347.84 43.48L347.84 43.48Q343.04 39.40 343.04 33.52Q343.04 27.64 346.84 23.44Q350.64 19.24 356.32 19.24Q362 19.24 364.72 21.76Q367.44 24.28 367.44 27.88Q367.44 31.48 365.24 34.28Q363.04 37.08 359.52 37.08Q356 37.08 353.92 34.84L353.92 34.84Q352 32.92 351.76 30.04L351.76 30.04Q351.68 29.24 351.76 29.08L351.76 29.08L353.28 29.16Q353.20 31.96 355.04 33.80L355.04 33.80Q356.56 35.48 359.48 35.48Q362.40 35.48 364.16 33.20Q365.92 30.92 365.92 27.92Q365.92 24.92 363.84 23.08L363.84 23.08Q361.52 20.76 356.40 20.76Q351.28 20.76 347.92 24.48Q344.56 28.20 344.56 33.44Q344.56 38.68 348.88 42.36L348.88 42.36Q351.44 44.60 354.12 45.56Q356.80 46.52 361.28 46.52 zM374.88-8.52L374.88-8.52Q374.88-12.04 376.68-14.36Q378.48-16.68 381.60-16.68L381.60-16.68Q386.96-16.68 386.96-10.80Q386.96-4.92 381.12 0.28L381.12 0.28Q382.88 1.08 384.80 1.08L384.80 1.08Q389.76 1.08 392.72-2.16Q395.68-5.40 395.68-9.76Q395.68-14.12 392.48-17.16L392.48-17.16Q388.56-20.68 382.16-20.68Q375.76-20.68 371.28-17.56L371.28-17.56Q364.32-12.60 364.32-4.76L364.32-4.76Q364.32 1.72 368.64 4.68L368.64 4.68Q374 3.48 378.56 0.36L378.56 0.36Q374.88-2.92 374.88-8.52 zM381.52-15.24L381.52-15.24Q379.12-15.24 377.80-13.40Q376.48-11.56 376.48-8.52L376.48-8.52Q376.48-3.32 379.76-0.60L379.76-0.60Q382.16-2.28 383.76-5.16Q385.36-8.04 385.36-10.84L385.36-10.84Q385.36-15.24 381.52-15.24" style="fill: rgb(222, 132, 15);" transform="translate(-398.040,-15.499)"></path></g><g class="path" style="opacity: 1; transform-origin: 16.36px 5.58px; transform: matrix3d(0.91, 0, 0, 0, 0, 0.91, 0, 0, 0, 0, 0.91, 0, 0, 0, 0, 1); animation: 1s linear -0.388235s infinite normal forwards running animate-3r0ktdrol6h; transform-box: view-box;"><path d="M414.08 31.64L414.08 31.64Q410.40 31.64 408.24 29.96L408.24 29.96L405.84 42.84L396.32 42.84L403.84 0.92Q401.44 1.16 399.84 3.16L399.84 3.16L398.64 2.20Q401.04-0.68 404.60-0.68Q408.16-0.68 410.16 1.04Q412.16 2.76 412.32 5.88L412.32 5.88Q415.84-0.12 421.28-0.12Q426.72-0.12 429.60 2.96Q432.48 6.04 432.48 11.40L432.48 11.40Q432.48 20.84 427.36 26.24Q422.24 31.64 414.08 31.64 zM411.68 11.08L408.80 26.76Q410.16 29.80 413.96 29.80Q417.76 29.80 420.60 23.40Q423.44 17 423.44 8.12L423.44 8.12Q423.44 4.44 422.68 3.08Q421.92 1.72 419.92 1.72Q417.92 1.72 415.80 4.12Q413.68 6.52 412.72 8.64Q411.76 10.76 411.76 11.08L411.76 11.08L411.68 11.08" style="fill: rgb(248, 113, 113);" transform="translate(-398.040,-15.499)"></path></g><g class="path" style="opacity: 1; transform-origin: 55.64px 0.3px; transform: matrix3d(0.91, 0, 0, 0, 0, 0.91, 0, 0, 0, 0, 0.91, 0, 0, 0, 0, 1); animation: 1s linear -0.349412s infinite normal forwards running animate-3r0ktdrol6h; transform-box: view-box;"><path d="M464.64 31.72L464.64 31.72Q457.60 31.72 456.96 25.56L456.96 25.56Q453.44 31.72 448.08 31.72Q442.72 31.72 439.56 28.48Q436.40 25.24 436.40 19.40L436.40 19.40Q436.40 10.28 440.88 5.08Q445.36-0.12 452.48-0.12L452.48-0.12Q458.32-0.12 460.24 5.40L460.24 5.40Q460.64 3 461.12 0.60L461.12 0.60Q467.04 0.60 469.92 0.12L469.92 0.12L470.96-0.12L465.44 30.12Q467.84 29.88 469.44 27.88L469.44 27.88L470.64 28.84Q468.24 31.72 464.64 31.72 zM445.44 23.48Q445.44 27.08 446.36 28.48Q447.28 29.88 449.20 29.88Q451.12 29.88 453.12 27.80L453.12 27.80Q455.76 25.08 457.36 20.92L457.36 20.92Q457.60 19.88 458.28 15.92Q458.96 11.96 459.44 9.40L459.44 9.40Q459.20 6.36 457.76 4.12Q456.32 1.88 454.16 1.88L454.16 1.88Q450.24 1.88 447.84 8.88Q445.44 15.88 445.44 23.48L445.44 23.48" style="fill: rgb(255, 167, 119);" transform="translate(-398.040,-15.499)"></path></g><g class="path" style="opacity: 1; transform-origin: 91.56px 0.3px; transform: matrix3d(0.91, 0, 0, 0, 0, 0.91, 0, 0, 0, 0, 0.91, 0, 0, 0, 0, 1); animation: 1s linear -0.310588s infinite normal forwards running animate-3r0ktdrol6h; transform-box: view-box;"><path d="M494.40 14.28Q492.72 12.60 492.72 10.20Q492.72 7.80 494.40 6.08Q496.08 4.36 498.48 4.36L498.48 4.36Q499.20 4.36 500.32 4.68L500.32 4.68Q498.80 1.88 494.64 1.88Q490.48 1.88 487.28 7.16Q484.08 12.44 484.08 22.84L484.08 22.84Q484.08 26.44 485.72 28.16Q487.36 29.88 489.84 29.88Q492.32 29.88 494.36 28.92Q496.40 27.96 497.60 26.64Q498.80 25.32 499.68 23.88L499.68 23.88Q501.28 21.24 501.28 20.52L501.28 20.52L502.72 21.16Q502.48 22.44 501.28 24.56Q500.08 26.68 498.64 28.04Q497.20 29.40 494.40 30.56Q491.60 31.72 488.16 31.72L488.16 31.72Q481.68 31.72 478.36 28.64Q475.04 25.56 475.04 20.20L475.04 20.20Q475.04 10.68 479.80 5.28Q484.56-0.12 492.72-0.12L492.72-0.12Q498.24-0.12 501.20 2.68Q504.16 5.48 504.16 10.04L504.16 10.04Q504.16 12.92 502.44 14.44Q500.72 15.96 498.40 15.96Q496.08 15.96 494.40 14.28" style="fill: rgb(255, 184, 5);" transform="translate(-398.040,-15.499)"></path></g><g class="path" style="opacity: 1; transform-origin: 123.24px 0.3px; transform: matrix3d(0.91, 0, 0, 0, 0, 0.91, 0, 0, 0, 0, 0.91, 0, 0, 0, 0, 1); animation: 1s linear -0.271765s infinite normal forwards running animate-3r0ktdrol6h; transform-box: view-box;"><path d="M524.80-0.12L524.80-0.12Q534.96-0.12 534.96 7.96L534.96 7.96Q534.96 13 530.20 15.60Q525.44 18.20 516.64 18.28L516.64 18.28Q516.48 21.16 516.48 22.84L516.48 22.84Q516.48 26.44 518.12 28.16Q519.76 29.88 522.24 29.88Q524.72 29.88 526.76 28.92Q528.80 27.96 530 26.64Q531.20 25.32 532.08 23.88L532.08 23.88Q533.68 21.24 533.68 20.52L533.68 20.52L535.12 21.16Q534.88 22.44 533.68 24.56Q532.48 26.68 531.04 28.04Q529.60 29.40 526.80 30.56Q524 31.72 520.56 31.72L520.56 31.72Q514.08 31.72 510.76 28.64Q507.44 25.56 507.44 20.20L507.44 20.20Q507.44 10.68 512.16 5.28Q516.88-0.12 524.80-0.12 zM532.96 7.96Q532.96 5.32 531.40 3.60Q529.84 1.88 526.76 1.88Q523.68 1.88 520.76 5.56Q517.84 9.24 516.88 16.44L516.88 16.44Q532.96 16.36 532.96 7.96L532.96 7.96" style="fill: rgb(255, 120, 112);" transform="translate(-398.040,-15.499)"></path></g><g class="path" style="opacity: 1; transform-origin: 184.52px -5.46px; transform: matrix3d(0.91, 0, 0, 0, 0, 0.91, 0, 0, 0, 0, 0.91, 0, 0, 0, 0, 1); animation: 1s linear -0.232941s infinite normal forwards running animate-3r0ktdrol6h; transform-box: view-box;"><path d="M568.40 20.12L568.40 20.12Q568.40 32.12 576.16 35.96L576.16 35.96Q578.08 36.20 581.24 36.20Q584.40 36.20 587.92 35Q591.44 33.80 593.36 32.04L593.36 32.04Q597.44 28.28 598.48 25.56L598.48 25.56L598.88 24.36L600.48 25Q599.92 26.84 598.32 29.24Q596.72 31.64 594.68 33.32Q592.64 35 588.76 36.40Q584.88 37.80 580.16 37.80L580.16 37.80Q570.08 37.80 564.52 31.96Q558.96 26.12 558.96 15.48L558.96 15.48Q558.96 1 568.32-8.36Q577.68-17.72 592.88-17.72L592.88-17.72Q599.92-17.72 603.04-15.20Q606.16-12.68 606.16-7.32L606.16-7.32Q606.16-3.72 602.64 1.56L602.64 1.56Q599.44 6.68 599.44 9.56L599.44 9.56L597.68 9.56Q597.68 7.96 598.32 6.12Q598.96 4.28 599.44 3.48Q599.92 2.68 601.20 0.60L601.20 0.60Q604.32-4.12 604.32-7.16L604.32-7.16Q604.32-13.56 599.04-15.24L599.04-15.24Q596.56-16.04 593.84-16.04Q591.12-16.04 588.08-15.72L588.08-15.72Q585.28-14.84 582.76-13.44Q580.24-12.04 577.52-9.20Q574.80-6.36 572.88-2.60Q570.96 1.16 569.68 7.04Q568.40 12.92 568.40 20.12" style="fill: rgb(222, 132, 15);" transform="translate(-398.040,-15.499)"></path></g><g class="path" style="opacity: 1; transform-origin: 227.08px 0.3px; transform: matrix3d(0.91, 0, 0, 0, 0, 0.91, 0, 0, 0, 0, 0.91, 0, 0, 0, 0, 1); animation: 1s linear -0.194118s infinite normal forwards running animate-3r0ktdrol6h; transform-box: view-box;"><path d="M636.08 31.72L636.08 31.72Q629.04 31.72 628.40 25.56L628.40 25.56Q624.88 31.72 619.52 31.72Q614.16 31.72 611 28.48Q607.84 25.24 607.84 19.40L607.84 19.40Q607.84 10.28 612.32 5.08Q616.80-0.12 623.92-0.12L623.92-0.12Q629.76-0.12 631.68 5.40L631.68 5.40Q632.08 3 632.56 0.60L632.56 0.60Q638.48 0.60 641.36 0.12L641.36 0.12L642.40-0.12L636.88 30.12Q639.28 29.88 640.88 27.88L640.88 27.88L642.08 28.84Q639.68 31.72 636.08 31.72 zM616.88 23.48Q616.88 27.08 617.80 28.48Q618.72 29.88 620.64 29.88Q622.56 29.88 624.56 27.80L624.56 27.80Q627.20 25.08 628.80 20.92L628.80 20.92Q629.04 19.88 629.72 15.92Q630.40 11.96 630.88 9.40L630.88 9.40Q630.64 6.36 629.20 4.12Q627.76 1.88 625.60 1.88L625.60 1.88Q621.68 1.88 619.28 8.88Q616.88 15.88 616.88 23.48L616.88 23.48" style="fill: rgb(248, 113, 113);" transform="translate(-398.040,-15.499)"></path></g><g class="path" style="opacity: 1; transform-origin: 261.08px -5.62px; transform: matrix3d(0.91, 0, 0, 0, 0, 0.91, 0, 0, 0, 0, 0.91, 0, 0, 0, 0, 1); animation: 1s linear -0.155294s infinite normal forwards running animate-3r0ktdrol6h; transform-box: view-box;"><path d="M647.44 0.60L651.52 0.60L653.68-11.24Q659.60-11.24 662.48-11.72L662.48-11.72L663.52-11.96Q662.40-6.36 661.04 0.60L661.04 0.60L670.96 0.60L670.80 2.04L660.80 2.04Q656.80 22.68 656.80 26.92L656.80 26.92Q656.80 29.48 659.52 29.48Q662.24 29.48 664.48 26.04Q666.72 22.60 667.68 18.60L667.68 18.60L669.12 19.08Q666.16 31.72 656.88 31.72L656.88 31.72Q653.04 31.72 650.48 29.60Q647.92 27.48 647.92 23.68Q647.92 19.88 651.20 2.04L651.20 2.04L647.28 2.04L647.44 0.60" style="fill: rgb(255, 167, 119);" transform="translate(-398.040,-15.499)"></path></g><g class="path" style="opacity: 1; transform-origin: 291.56px 0.3px; transform: matrix3d(0.91, 0, 0, 0, 0, 0.91, 0, 0, 0, 0, 0.91, 0, 0, 0, 0, 1); animation: 1s linear -0.116471s infinite normal forwards running animate-3r0ktdrol6h; transform-box: view-box;"><path d="M700.56 31.72L700.56 31.72Q693.52 31.72 692.88 25.56L692.88 25.56Q689.36 31.72 684 31.72Q678.64 31.72 675.48 28.48Q672.32 25.24 672.32 19.40L672.32 19.40Q672.32 10.28 676.80 5.08Q681.28-0.12 688.40-0.12L688.40-0.12Q694.24-0.12 696.16 5.40L696.16 5.40Q696.56 3 697.04 0.60L697.04 0.60Q702.96 0.60 705.84 0.12L705.84 0.12L706.88-0.12L701.36 30.12Q703.76 29.88 705.36 27.88L705.36 27.88L706.56 28.84Q704.16 31.72 700.56 31.72 zM681.36 23.48Q681.36 27.08 682.28 28.48Q683.20 29.88 685.12 29.88Q687.04 29.88 689.04 27.80L689.04 27.80Q691.68 25.08 693.28 20.92L693.28 20.92Q693.52 19.88 694.20 15.92Q694.88 11.96 695.36 9.40L695.36 9.40Q695.12 6.36 693.68 4.12Q692.24 1.88 690.08 1.88L690.08 1.88Q686.16 1.88 683.76 8.88Q681.36 15.88 681.36 23.48L681.36 23.48" style="fill: rgb(255, 184, 5);" transform="translate(-398.040,-15.499)"></path></g><g class="path" style="opacity: 1; transform-origin: 324.56px -10.06px; transform: matrix3d(0.91, 0, 0, 0, 0, 0.91, 0, 0, 0, 0, 0.91, 0, 0, 0, 0, 1); animation: 1s linear -0.0776471s infinite normal forwards running animate-3r0ktdrol6h; transform-box: view-box;"><path d="M725.68 28.12Q724.64 29.48 722.84 30.60Q721.04 31.72 718.16 31.72Q715.28 31.72 713.28 29.88Q711.28 28.04 711.28 24.68L711.28 24.68Q711.28 24.04 711.44 22.60L711.44 22.60L716.64-6.20Q718.08-14.12 720.60-17.48Q723.12-20.84 727.28-20.84L727.28-20.84Q730.16-20.84 732.04-18.68Q733.92-16.52 733.92-12.12Q733.92-7.72 730.52 0.44Q727.12 8.60 727.12 12.36L727.12 12.36L725.68 12.36Q725.68 8.12 729.04 0.24Q732.40-7.64 732.40-12.36L732.40-12.36Q732.40-15.24 731.08-17.32Q729.76-19.40 727.84-19.40L727.84-19.40Q727.76-17.32 725.08-0.72Q722.40 15.88 719.76 30.12L719.76 30.12Q722 30.12 723.92 27.80Q725.84 25.48 726.64 23.16L726.64 23.16L727.52 20.76L728.96 21.40Q728.72 22.52 727.72 24.64Q726.72 26.76 725.68 28.12" style="fill: rgb(255, 120, 112);" transform="translate(-398.040,-15.499)"></path></g><g class="path" style="opacity: 1; transform-origin: 350.92px 0.3px; transform: matrix3d(0.91, 0, 0, 0, 0, 0.91, 0, 0, 0, 0, 0.91, 0, 0, 0, 0, 1); animation: 1s linear -0.0388235s infinite normal forwards running animate-3r0ktdrol6h; transform-box: view-box;"><path d="M745.84 31.72Q739.68 31.72 736.48 28.64Q733.28 25.56 733.28 20.88Q733.28 16.20 734.12 12.88Q734.96 9.56 736.88 6.48Q738.80 3.40 742.68 1.64Q746.56-0.12 752.36-0.12Q758.16-0.12 761.40 2.96Q764.64 6.04 764.64 11.40L764.64 11.40Q764.64 20.52 759.80 26.12Q754.96 31.72 745.84 31.72L745.84 31.72 zM742.32 23.48L742.32 23.48Q742.32 29.88 746.04 29.88Q749.76 29.88 752.68 23.44Q755.60 17 755.60 8.12L755.60 8.12Q755.60 1.40 751.96 1.40Q748.32 1.40 745.32 7.52Q742.32 13.64 742.32 23.48" style="fill: rgb(222, 132, 15);" transform="translate(-398.040,-15.499)"></path></g><g class="path" style="opacity: 1; transform-origin: 386.68px 7.3px; transform: matrix3d(0.91, 0, 0, 0, 0, 0.91, 0, 0, 0, 0, 0.91, 0, 0, 0, 0, 1); animation: 1s linear 0s infinite normal forwards running animate-3r0ktdrol6h; transform-box: view-box;"><path d="M794.88 39.72L794.88 39.72Q797.76 39.72 799.84 37.48L799.84 37.48L800.96 38.44Q799.04 41.16 794.88 41.16L794.88 41.16Q793.12 41.16 791.28 40.76L791.28 40.76Q785.84 45.72 777.36 45.72L777.36 45.72Q772.32 45.72 769.56 44Q766.80 42.28 766.80 39.52Q766.80 36.76 768.52 35.12Q770.24 33.48 774.64 33.48Q779.04 33.48 786.24 37.08L786.24 37.08L788.72 23.80Q785.12 30.44 779.44 30.44L779.44 30.44Q768.56 30.44 768.56 19.72L768.56 19.72Q768.56 10.76 773.08 5.32Q777.60-0.12 784.64-0.12L784.64-0.12Q788.72-0.12 790.96 2.36L790.96 2.36Q791.60 3.08 792.24 4.52L792.24 4.52L792.96 0.60Q798.88 0.60 801.60 0.12L801.60 0.12L802.64-0.12L797.36 29.40Q796.16 35.64 792.56 39.48L792.56 39.48Q793.60 39.72 794.88 39.72 zM777.60 22.20Q777.60 25.88 778.32 27.12Q779.04 28.36 781.04 28.36Q783.04 28.36 785.12 26.20Q787.20 24.04 788.12 22.16Q789.04 20.28 789.68 18.52L789.68 18.52L791.36 9.32L791.36 8.76Q791.36 1.40 784.64 1.40L784.64 1.40Q782.08 1.40 779.84 8.36Q777.60 15.32 777.60 22.20L777.60 22.20 zM777.04 44.12L777.04 44.12Q783.44 44.12 785.68 38.60L785.68 38.60L784.56 38.04Q783.60 37.56 783.40 37.44Q783.20 37.32 782.32 36.92Q781.44 36.52 781.04 36.40Q780.64 36.28 779.80 35.96Q778.96 35.64 778.40 35.52Q777.84 35.40 777.12 35.24L777.12 35.24Q775.92 35 773.60 35Q771.28 35 769.88 36.12Q768.48 37.24 768.48 39.40Q768.48 41.56 770.80 42.84Q773.12 44.12 777.04 44.12" style="fill: rgb(248, 113, 113);" transform="translate(-398.040,-15.499)"></path></g></g><text dy="0.35em" fill="#de840f" font-family="Sail" font-size="80">Buy My Space Catalog</text>
</g>
</g><style type="text/css">@keyframes animate-3r0ktdrol6h { 0.00% {transform: translate(0.00px,0.00px) rotate(0.00deg) scale(0.91, 0.91) skew(0deg, 0.00deg) ;opacity: 1.00;}4.00% {transform: translate(0.00px,0.00px) rotate(0.00deg) scale(0.91, 0.91) ;}8.00% {animation-timing-function: cubic-bezier(0.69,0.60,0.35,0.27);transform: translate(0.00px,0.00px) rotate(0.00deg) scale(0.91, 0.91) ;}14.00% {transform: translate(0.00px,0.00px) rotate(0.00deg) scale(0.93, 0.93) ;}18.00% {transform: translate(0.00px,0.00px) rotate(0.00deg) scale(0.94, 0.94) ;}22.00% {animation-timing-function: cubic-bezier(0.67,0.66,0.34,0.33);transform: translate(0.00px,0.00px) rotate(0.00deg) scale(0.96, 0.96) ;}26.00% {transform: translate(0.00px,0.00px) rotate(0.00deg) scale(0.97, 0.97) ;}30.00% {transform: translate(0.00px,0.00px) rotate(0.00deg) scale(0.99, 0.99) ;}34.00% {animation-timing-function: cubic-bezier(0.65,0.71,0.32,0.38);transform: translate(0.00px,0.00px) rotate(0.00deg) scale(1.01, 1.01) ;}40.00% {animation-timing-function: cubic-bezier(0.64,0.74,0.31,0.41);transform: translate(0.00px,0.00px) rotate(0.00deg) scale(1.02, 1.02) ;}46.00% {animation-timing-function: cubic-bezier(0.60,0.91,0.23,0.63);transform: translate(0.00px,0.00px) rotate(0.00deg) scale(1.03, 1.03) ;}50.00% {transform: translate(0.00px,0.00px) rotate(0.00deg) scale(1.03, 1.03) ;}54.00% {transform: translate(0.00px,0.00px) rotate(0.00deg) scale(1.03, 1.03) ;}58.00% {animation-timing-function: cubic-bezier(0.69,0.60,0.35,0.27);transform: translate(0.00px,0.00px) rotate(0.00deg) scale(1.03, 1.03) ;}64.00% {transform: translate(0.00px,0.00px) rotate(0.00deg) scale(1.01, 1.01) ;}68.00% {transform: translate(0.00px,0.00px) rotate(0.00deg) scale(1.00, 1.00) ;}72.00% {animation-timing-function: cubic-bezier(0.67,0.66,0.34,0.33);transform: translate(0.00px,0.00px) rotate(0.00deg) scale(0.98, 0.98) ;}76.00% {animation-timing-function: cubic-bezier(0.66,0.68,0.33,0.35);transform: translate(0.00px,0.00px) rotate(0.00deg) scale(0.97, 0.97) ;}82.00% {animation-timing-function: cubic-bezier(0.65,0.71,0.32,0.38);transform: translate(0.00px,0.00px) rotate(0.00deg) scale(0.94, 0.94) ;}88.00% {animation-timing-function: cubic-bezier(0.65,0.73,0.31,0.40);transform: translate(0.00px,0.00px) rotate(0.00deg) scale(0.92, 0.92) ;}94.00% {animation-timing-function: cubic-bezier(0.63,0.80,0.28,0.48);transform: translate(0.00px,0.00px) rotate(0.00deg) scale(0.91, 0.91) ;}100.00% {animation-timing-function: cubic-bezier(0.63,0.80,0.28,0.48);transform: translate(0.00px,0.00px) rotate(0.00deg) scale(0.91, 0.91) ;} }</style><!-- [ldio] generated by https://loading.io --></svg>